<mxfile host="app.diagrams.net" modified="2024-06-14T10:40:13.843Z" agent="Mozilla/5.0 (Windows NT 10.0; Win64; x64) AppleWebKit/537.36 (KHTML, like Gecko) Chrome/109.0.0.0 Safari/537.36" etag="6UjSXTs--g4lFtgUhnAv" version="24.5.4" type="github">
  <diagram name="Page-1" id="qYOyJWJzMjoWyheEanTE">
    <mxGraphModel dx="1434" dy="707" grid="1" gridSize="10" guides="1" tooltips="1" connect="1" arrows="1" fold="1" page="1" pageScale="1" pageWidth="850" pageHeight="1100" math="0" shadow="0">
      <root>
        <mxCell id="0" />
        <mxCell id="1" parent="0" />
        <mxCell id="R0-FZ9_9iY--BH7KeySi-1" value="Car" style="swimlane;fontStyle=1;align=center;verticalAlign=top;childLayout=stackLayout;horizontal=1;startSize=29.2;horizontalStack=0;resizeParent=1;resizeParentMax=0;resizeLast=0;collapsible=0;marginBottom=0;" vertex="1" parent="1">
          <mxGeometry x="70" y="20" width="251" height="66.2" as="geometry" />
        </mxCell>
        <mxCell id="R0-FZ9_9iY--BH7KeySi-2" style="line;strokeWidth=1;fillColor=none;align=left;verticalAlign=middle;spacingTop=-1;spacingLeft=3;spacingRight=3;rotatable=0;labelPosition=right;points=[];portConstraint=eastwest;strokeColor=inherit;" vertex="1" parent="R0-FZ9_9iY--BH7KeySi-1">
          <mxGeometry y="29.2" width="251" height="8" as="geometry" />
        </mxCell>
        <mxCell id="R0-FZ9_9iY--BH7KeySi-3" value="+void startEngine(Engine engine)" style="text;strokeColor=none;fillColor=none;align=left;verticalAlign=top;spacingLeft=4;spacingRight=4;overflow=hidden;rotatable=0;points=[[0,0.5],[1,0.5]];portConstraint=eastwest;" vertex="1" parent="R0-FZ9_9iY--BH7KeySi-1">
          <mxGeometry y="37.2" width="251" height="29" as="geometry" />
        </mxCell>
        <mxCell id="R0-FZ9_9iY--BH7KeySi-4" value="Engine" style="swimlane;fontStyle=1;align=center;verticalAlign=top;childLayout=stackLayout;horizontal=1;startSize=29.2;horizontalStack=0;resizeParent=1;resizeParentMax=0;resizeLast=0;collapsible=0;marginBottom=0;" vertex="1" parent="1">
          <mxGeometry x="510" y="20" width="104" height="66.2" as="geometry" />
        </mxCell>
        <mxCell id="R0-FZ9_9iY--BH7KeySi-5" style="line;strokeWidth=1;fillColor=none;align=left;verticalAlign=middle;spacingTop=-1;spacingLeft=3;spacingRight=3;rotatable=0;labelPosition=right;points=[];portConstraint=eastwest;strokeColor=inherit;" vertex="1" parent="R0-FZ9_9iY--BH7KeySi-4">
          <mxGeometry y="29.2" width="104" height="8" as="geometry" />
        </mxCell>
        <mxCell id="R0-FZ9_9iY--BH7KeySi-6" value="+void start()" style="text;strokeColor=none;fillColor=none;align=left;verticalAlign=top;spacingLeft=4;spacingRight=4;overflow=hidden;rotatable=0;points=[[0,0.5],[1,0.5]];portConstraint=eastwest;" vertex="1" parent="R0-FZ9_9iY--BH7KeySi-4">
          <mxGeometry y="37.2" width="104" height="29" as="geometry" />
        </mxCell>
        <mxCell id="R0-FZ9_9iY--BH7KeySi-7" value="Dependency" style="curved=1;dashed=1;startArrow=none;endArrow=open;endSize=12;exitX=0.996;exitY=0.1;rounded=0;exitDx=0;exitDy=0;exitPerimeter=0;" edge="1" parent="1" source="R0-FZ9_9iY--BH7KeySi-2">
          <mxGeometry relative="1" as="geometry">
            <Array as="points" />
            <mxPoint x="510" y="50" as="targetPoint" />
          </mxGeometry>
        </mxCell>
      </root>
    </mxGraphModel>
  </diagram>
</mxfile>
